<?xml version="1.0" encoding="utf-8"?>
<!-- Generator: Adobe Illustrator 26.5.0, SVG Export Plug-In . SVG Version: 6.00 Build 0)  -->
<svg version="1.1" id="Calque_1" xmlns="http://www.w3.org/2000/svg" xmlns:xlink="http://www.w3.org/1999/xlink" x="0px" y="0px"
	 viewBox="0 0 515.3 682.9" style="enable-background:new 0 0 515.3 682.9;" xml:space="preserve">
<style type="text/css">
	.st0{fill:#F2F2F2;}
	.st1{fill:#EF4444;}
	.st2{fill:#2F2E41;}
	.st3{fill:#FFB6B6;}
	.st4{fill:#CCCCCC;}
	.st5{fill:#B91C1C;}
</style>
<path class="st0" d="M99.8,453.5c-10.9,4-24,8.8-35.5,4.5c-8.3-3.1-16.3-12.8-13.1-22c3.7-10.5,18.1-13.1,27.7-13.6
	c12-0.5,23.9,2.4,35,6.9c22.5,9,41.8,24.3,64.2,33.6c21.4,8.8,44.1,13.8,67.2,14.9c47,2.5,93.2-10,135.4-30
	c20.8-9.8,40.8-21.2,59.8-34.2c17.6-12,34.2-25.8,47.5-42.5c12.8-16,22.1-34.5,25.7-54.7c3.4-19.2,1.8-39.6-6.9-57.2
	c-2.2-4.4-4.8-8.6-7.8-12.5c-1.2-1.5-3.8,0-2.6,1.5c12.5,16.3,17.2,37,15.6,57.3c-1.6,21-9.6,40.8-21.8,57.8
	c-12.8,17.9-29.7,32.6-47.6,45.3c-18.9,13.3-38.9,25-59.8,35c-43,20.8-90.3,34-138.4,31.3c-23.6-1.3-47.2-6.5-68.9-16.2
	c-22.2-9.9-41.7-25.3-64.7-33.7c-10.9-4-22.7-6.4-34.4-5.4c-9.5,0.8-21.1,3.5-26.6,12.1c-5,7.8-1.7,17.5,4.5,23.5
	c7.7,7.4,18.3,8.4,28.5,6.5c6-1.3,11.9-3,17.7-5.3C102.4,455.7,101.6,452.8,99.8,453.5L99.8,453.5z"/>
<path class="st0" d="M233.8,6.4c-27.5-6.1-55.7-7.8-83.8-5.1c-12.8,1.2-25.9,3.1-38.3,6.8C102,11,92,15.6,85.6,23.9
	c-17.1,21.9,1.9,48.4,9.1,70c3.8,11.5,5.8,25-1.7,35.5c-6.8,9.6-19.2,13.7-30.5,12.3c-12.2-1.5-23.9-8.5-31.4-18.1
	c-6.9-8.8-10.7-21.1-5.3-31.6c4.5-8.8,13.9-14.5,23.6-15.6c10.6-1.2,20.6,3.5,27.9,11c7.8,8.3,12.3,19.3,12.5,30.7
	c0.5,13.2-3.7,26.2-10.1,37.6c-13.1,23.4-34.6,40.4-51.3,61.1c-7.7,9.4-14.1,19.8-18.8,31c-4.4,10.6-7.2,21.7-8.5,33
	c-2.7,22.8,0.8,45.9,10.2,66.8c2.3,5.1,5,10,8,14.7c1,1.6,3.6,0.1,2.6-1.5C8.9,340.9,2.6,317.3,3,293.7c0.3-23.9,7.7-47.2,21.4-66.9
	c15.8-22.5,38.1-39.5,53.4-62.4c13.6-20.5,21.5-48.4,7.8-70.9C80,84.3,71.4,76.9,60.9,74.2c-9.8-2.4-20.2-0.4-28.4,5.6
	c-8.5,6.1-13.3,15.9-12.1,26.4c1.3,11.5,8.7,21.6,17.7,28.4c9.9,7.4,22.6,11.8,35,9.8c11.2-1.8,21.4-8.9,25.6-19.6
	c4.7-11.8,1.5-25.1-2.9-36.4c-4.7-12.4-11.5-24-13.6-37.3c-1-6.5-0.7-13.3,2-19.4c2.2-4.9,5.7-9.2,10.1-12.3
	c9.1-6.7,20.4-9.6,31.3-11.7c28.6-5.5,57.9-6.3,86.7-2.3c6.9,1,13.8,2.2,20.6,3.7C234.9,9.7,235.7,6.8,233.8,6.4L233.8,6.4z"/>
<path class="st1" d="M160.7,653.4c-163.5,3.8-77.9-321.6-77.9-413.9C82.8,147.1,158,72,250.3,72s167.5,75.2,167.5,167.5
	C417.9,331.9,253,653.4,160.7,653.4z M403.9,220.8c-54.1-88-176.7-102.7-250.5-30.5c-20.2,19.8-42.3,37.4-66,49.1
	c-74.9,37.1,87.3,187.8,162.9,162.9c66.7-35,275.6-63.9,162.9-162.9C408.6,235.4,408,227.4,403.9,220.8z"/>
<path class="st2" d="M120,239c-0.4,0.1-0.7,0.4-0.7,0.8c0,0.2,0.1,0.4,0.3,0.5c4.1,3,7.8,6.4,11,10.2c0.3,0.3,0.7,0.4,1.1,0.1
	c0.2-0.2,0.3-0.4,0.3-0.7l-0.6-6.3l35.8,9.2l0.5-1.9l-35.8-9.2l3.6-5.3c0.2-0.3,0.2-0.8-0.2-1.1c-0.2-0.1-0.5-0.2-0.7-0.1
	C129.8,237.1,124.9,238.3,120,239z"/>
<path class="st2" d="M311.5,40.1c-0.4-0.1-0.8,0.1-1,0.5c-0.1,0.2-0.1,0.4,0,0.6c2.3,4.5,4,9.2,5.2,14.1c0.1,0.4,0.5,0.7,0.9,0.6
	c0.2-0.1,0.5-0.2,0.5-0.5l2.3-5.9l27.8,24.4l1.3-1.5l-27.8-24.4l5.6-3.1c0.4-0.2,0.5-0.7,0.3-1c-0.1-0.2-0.3-0.4-0.6-0.4
	C321.2,42.9,316.2,41.8,311.5,40.1z"/>
<path class="st2" d="M119.8,586.1c0,0.4,0.3,0.8,0.7,0.8c0.2,0,0.4,0,0.6-0.2c3.8-3.3,7.9-6.2,12.3-8.6c0.4-0.2,0.5-0.7,0.3-1
	c-0.1-0.2-0.3-0.4-0.6-0.4l-6.3-0.8l16.7-33l-1.8-0.9l-16.7,33l-4.4-4.6c-0.3-0.3-0.8-0.3-1.1,0c-0.2,0.2-0.3,0.4-0.2,0.7
	C120.1,576.1,120.2,581.1,119.8,586.1z"/>
<path class="st2" d="M470,113.9c0.2-0.4,0-0.8-0.3-1c-0.2-0.1-0.4-0.1-0.6,0c-4.7,1.7-9.6,2.9-14.6,3.5c-0.4,0-0.7,0.4-0.7,0.8
	c0,0.3,0.2,0.5,0.4,0.6l5.6,3l-27.5,24.7l1.3,1.5l27.5-24.7l2.4,5.9c0.2,0.4,0.6,0.6,1,0.4c0.2-0.1,0.4-0.3,0.5-0.5
	C466.1,123.2,467.7,118.4,470,113.9z"/>
<path class="st2" d="M445.4,373.8c0.3-0.3,0.3-0.8,0.1-1.1c-0.1-0.2-0.3-0.2-0.5-0.2c-5-0.1-10-0.8-14.9-2.1
	c-0.4-0.1-0.8,0.1-0.9,0.5c-0.1,0.2,0,0.5,0.2,0.7l4.1,4.8l-34.6,12.9l0.7,1.9l34.6-12.9l0.1,6.4c0,0.4,0.3,0.8,0.8,0.8
	c0.3,0,0.5-0.1,0.6-0.3C438.4,381,441.7,377.2,445.4,373.8z"/>
<path class="st3" d="M156.3,299.3l44-69.4c3.9-6.1,12-8,18.1-4.2l0,0c6.2,3.8,8.2,12,4.3,18.2c-0.1,0.2-0.3,0.4-0.4,0.6l-47.9,70.6
	l-27.3,44.2c3.7,5.2,2.5,12.4-2.7,16.1c-5.2,3.7-12.4,2.5-16.1-2.7s-2.5-12.4,2.7-16.1c0.6-0.4,1.1-0.7,1.8-1L156.3,299.3z"/>
<circle class="st3" cx="253.3" cy="132.4" r="32.4"/>
<polygon class="st3" points="348.8,659.8 360.3,659.8 365.7,615.5 348.8,615.5 "/>
<path class="st2" d="M364.1,660.8V653l-3,0.2l-12.3,0.7l-2.8,0.2l-2.2,26.1l-0.1,1.4h8.1l0.3-1.4l1.2-6.3l3.1,6.3l0.7,1.4h21.6
	c2.7,0,4.8-2.2,4.9-4.9C384.4,672.5,366.4,663.3,364.1,660.8z"/>
<polygon class="st3" points="143.8,609.2 152.6,616.6 185.3,586.4 172.4,575.4 "/>
<path class="st2" d="M154.8,619.9l5-5.9l-2.4-1.8l-9.8-7.4l-2.3-1.7l-18.5,18.5l-1,1l6.2,5.3l1.1-0.9l5-4l-1.7,6.8l-0.4,1.5l16.5,14
	c2.1,1.7,5.1,1.5,6.8-0.6C162.7,641.9,155,623.2,154.8,619.9z"/>
<path class="st0" d="M443.3,665.2c1.3,0.1,2.3-0.9,2.4-2.2c0-0.7-0.2-1.3-0.7-1.8l-0.2-0.6c0,0,0-0.1,0.1-0.1c1.3-3.1,4.9-4.5,8-3.2
	c1.5,0.6,2.6,1.8,3.3,3.3c1.8,4.4,4.2,8.9,4.8,13.5c0.3,2.1,0.1,4.2-0.3,6.2c4.3-9.4,6.6-19.7,6.6-30c0-2.6-0.1-5.2-0.4-7.8
	c-0.2-2.1-0.6-4.2-1-6.3c-2.3-11.3-7.3-22-14.5-31c-3.5-1.9-6.3-4.8-8.1-8.4c-0.6-1.3-1.1-2.6-1.3-4.1c0.4,0.1,1.5-5.9,1.2-6.3
	c0.5-0.8,1.5-1.2,2.1-2.1c3-4,7.1-3.3,9.2,2.2c4.6,2.3,4.6,6.1,1.8,9.8c-1.8,2.3-2,5.5-3.6,8c0.2,0.2,0.3,0.4,0.5,0.6
	c3,3.8,5.5,7.9,7.7,12.2c-0.5-4.8,0.1-9.7,1.8-14.2c1.7-4.2,5-7.8,7.9-11.4c2.1-2.7,6.1-3.2,8.8-1.1c1.3,1,2.2,2.5,2.4,4.2
	c0,0.1,0,0.1,0,0.2c-0.4,0.2-0.8,0.5-1.3,0.8c-1.4,0.9-1.8,2.9-0.8,4.3c0.5,0.7,1.2,1.2,2.1,1.3l0.1,0c-0.2,1.5-0.4,3.1-0.8,4.6
	c3.7,14.3-4.3,19.5-15.7,19.8c-0.3,0.1-0.5,0.3-0.7,0.4c2.2,6.1,3.5,12.5,4,19c0.3,3.8,0.3,7.7-0.1,11.5l0-0.1
	c0.8-4.3,3.1-8.1,6.4-10.9c4.9-4.1,11.9-5.6,17.3-8.8c1.6-1.1,3.8-0.6,4.9,1.1c0.5,0.7,0.6,1.5,0.5,2.4l0,0.1
	c-0.8,0.3-1.6,0.7-2.3,1.1c-0.4,0.2-0.8,0.5-1.3,0.8c-1.4,0.9-1.8,2.9-0.8,4.3c0.5,0.7,1.2,1.2,2.1,1.3l0.1,0c0,0,0.1,0,0.1,0
	c-1.4,3.2-3.3,6.2-5.6,8.8c-2.3,12.5-12.3,13.7-22.9,10h0c-1.2,5.1-2.9,10-5,14.7h-18c-0.1-0.2-0.1-0.4-0.2-0.6c1.7,0.1,3.3,0,5-0.3
	c-1.3-1.6-2.7-3.3-4-4.9c0,0-0.1-0.1-0.1-0.1c-0.7-0.8-1.4-1.7-2-2.5l0,0C442.4,670.2,442.6,667.7,443.3,665.2L443.3,665.2z"/>
<path class="st4" d="M496.9,681.7c0,0.7-0.5,1.2-1.2,1.2c0,0,0,0,0,0H242.4c-0.7,0-1.2-0.5-1.2-1.2s0.5-1.2,1.2-1.2h253.3
	C496.3,680.5,496.9,681,496.9,681.7C496.9,681.7,496.9,681.7,496.9,681.7z"/>
<path class="st2" d="M240.6,319.6l78.3-20.3c0,0,38.4,48.6,40.4,106.6c0.1,3-1.5,6.7,0.3,10.3s-2.3,10.6,0.2,13.6s3.7,5.7,0.1,9.4
	s6.2,162.4,9.9,168.4c4.5,7.3-3.9,13,0.3,16.2s0.2,12.2,0.2,12.2h-22l-31.4-116.2c0,0-19.8-53.9-16.4-60.8s-2.6-9.5-2.6-9.5
	s-5.1-2.2-2.1-7.7s-6.4-23.8-6.4-23.8c4.3-0.6-2,56-27.5,107c-18.6,37.3-50.7,47.3-52.5,54c-3.9,14.8-22.7-1.4-17,10s-12,10-12,10
	l-20-16l61-75l6.6-79.8c0,0,3.5-1.1,1.5-5.2s4.8-3.6,2.4-8.3s4-4.5,2.3-8.1s2-7,2-7s-9.6-32.7,8.1-56.4L240.6,319.6z"/>
<path class="st5" d="M339.8,335.1c0,0-14-32-18-36s-17.5-11.2-14.5-14.2s9-1.2,4-6.6s-8.8-15.9-8.8-15.9l4.3-50.3l-23-29l-14.5-14.2
	l-35.3-2.3l-2,20.3c0,0-32.6,16.9-25.2,49.4s21,36.8,17,76.8c-0.4,4.5,17.3-1.1,13.5,0.8c-2,1-11.2,19-5.2,23c3.7,2.5,7.8,4.5,12,6
	C274.9,318.6,306.3,307.5,339.8,335.1z"/>
<path class="st3" d="M356,235.2l-78.8-23.1c-6.9-2.1-10.9-9.3-9-16.3l0,0c2-7,9.3-11.2,16.3-9.2c0.2,0.1,0.4,0.1,0.7,0.2l81.1,26.5
	l50,14c4-5,11.3-5.8,16.3-1.8s5.8,11.3,1.8,16.3s-11.3,5.8-16.3,1.8c-0.5-0.4-1-0.9-1.5-1.4L356,235.2z"/>
<path class="st2" d="M216.7,111.6c-4.5-16.4,44.6-30.5,54.2-17.3c1.3-1.9,6.2-3,8.5-2.4c2.2,0.7,4.2,1.9,6,3.4c2.5,2,5.2,4,6.7,6.8
	c1.6,2.8,1.8,6.6-0.3,9c-1.7,1.9-4.6,12.2-7.1,12.7c-1.8,0.4-3.2,0.6-4.5,0.9c-1.1-1.7-4-3.7-3.8-5.7c-1.7,1.1-1.1,3.1-0.7,5.2
	c1.1,6.8,27,59.2,12.2,43.8c-1.7,1-3.5,1.8-5.4,2.4c-3.7-5.6-6.5-11.8-8.4-18.2l0,0.1c-0.7,5.7-4.8,10.5-10.4,12
	c-22.2,6.4-40.2-3-46.4-20c2.3-4.6,3.2-4.1,3-4.2c-2.4-1.6-5.7-1-7.4,1.5c-0.2,0.3-0.4,0.7-0.5,1.1c-0.4,0.9-0.7,1.7-1,2.3
	C208.2,133.2,204.3,134.9,216.7,111.6z"/>
<path class="st2" d="M232,99.7l2.3-11.6c0.3-1,0.3-2-0.1-2.9c-0.7-1.1-2-1.7-3.3-1.4c-1.3,0.2-2.2,1.3-3.5,1.6
	c-4.4,0.8-10.2-3.5-11.7,7.4c-0.7,4.6-7.9,5-10.4,8.9s-2.7,9.6,0.6,12.7c2.6,2.6,6.9,2.8,10.3,1.5s6.2-3.9,8.6-6.7s4.6-5.8,7.4-8.2"
	/>
<path class="st2" d="M214.9,117.3c8.9-1.2,14.9-4.5,18-9.6c4-6.7,1.3-14.1,1.2-14.4l-1.9,0.7c0,0.1,2.5,6.8-1.1,12.7
	c-2.7,4.6-8.3,7.5-16.5,8.6L214.9,117.3z"/>
</svg>
