<?xml version="1.0" encoding="utf-8"?>
<!-- Generator: Adobe Illustrator 26.5.0, SVG Export Plug-In . SVG Version: 6.00 Build 0)  -->
<svg version="1.1" xmlns="http://www.w3.org/2000/svg" xmlns:xlink="http://www.w3.org/1999/xlink" x="0px" y="0px"
	 viewBox="0 0 971.6 781.4" style="enable-background:new 0 0 971.6 781.4;" xml:space="preserve">
<style type="text/css">
	.st0{clip-path:url(#SVGID_00000079464420610284992020000011764222443482988420_);}
	.st1{fill:#EF4444;}
	.st2{fill:#E6E6E6;}
	.st3{fill:#3F3D56;}
	.st4{fill:#B91C1C;}
	.st5{fill:#FFFFFF;}
	.st6{fill:#F1F1F1;}
	.st7{fill:#FFB8B8;}
	.st8{fill:#2F2E41;}
	.st9{fill:#CCCCCC;}
</style>
<g id="Calque_2">
	<g>
		<g>
			<defs>
				<path id="SVGID_1_" d="M863.7,539.3c-65.4,124.1-163.4,175.1-293.9,153.2c-130.5-21.9-254.6-84-372.2-186.1
					S76,295.3,185.7,179.6S413.6,12,540.3,24.1s228.6,70,305.8,173.6S929.1,415.2,863.7,539.3z"/>
			</defs>
			<clipPath id="SVGID_00000005253690285357233580000008967059164856476605_">
				<use xlink:href="#SVGID_1_"  style="overflow:visible;"/>
			</clipPath>
			<g style="clip-path:url(#SVGID_00000005253690285357233580000008967059164856476605_);">
				<path class="st1" d="M863.7,539.3c-65.4,124.1-163.4,175.1-293.9,153.2c-130.5-21.9-254.6-84-372.2-186.1S76,295.3,185.7,179.6
					S413.6,12,540.3,24.1s228.6,70,305.8,173.6S929.1,415.2,863.7,539.3z"/>
			</g>
		</g>
	</g>
</g>
<g id="Calque_1">
	<path class="st2" d="M768.9,394H318.7c-2.4,0-4.4-2-4.4-4.4V123.5c0-2.4,2-4.4,4.4-4.4h450.1c2.4,0,4.4,2,4.4,4.4v266.1
		C773.2,392.1,771.3,394,768.9,394z M318.7,120.9c-1.4,0-2.6,1.2-2.6,2.6v266.1c0,1.4,1.2,2.6,2.6,2.6h450.1c1.4,0,2.6-1.2,2.6-2.6
		V123.5c0-1.4-1.2-2.6-2.6-2.6H318.7z"/>
	<path id="bbcc4262-a9b8-4c1e-bf70-e1245b5187b9-657" class="st3" d="M500.4,140.4c-1.9,0-3.4,1.6-3.4,3.5c0,1.9,1.5,3.4,3.4,3.4
		h86.8c1.9,0,3.5-1.5,3.5-3.4c0-1.9-1.5-3.5-3.4-3.5l0,0c0,0-0.1,0-0.1,0H500.4z"/>
	<path class="st2" d="M606.9,139.5c-0.3,0.3-0.3,0.7,0,1c0,0,0,0,0,0l0,0l2.9,2.9h-7.2c-0.4,0-0.7,0.3-0.7,0.7
		c0,0.4,0.3,0.7,0.7,0.7h7.2l-2.9,2.9c-0.3,0.3-0.3,0.7,0,1c0.3,0.3,0.7,0.3,1,0l0,0l4.1-4.1c0.3-0.3,0.3-0.7,0-1l-4.1-4.1
		C607.6,139.2,607.2,139.2,606.9,139.5C606.9,139.5,606.9,139.5,606.9,139.5L606.9,139.5z"/>
	<path class="st2" d="M480.7,139.5c0.3,0.3,0.3,0.7,0,1l0,0l-2.9,2.9h7.2c0.4,0,0.7,0.3,0.7,0.7c0,0.4-0.3,0.7-0.7,0.7c0,0,0,0,0,0
		h-7.2l2.9,2.9c0.3,0.3,0.3,0.7,0,1c-0.3,0.3-0.7,0.3-1,0l0,0l-4.1-4.1c-0.3-0.3-0.3-0.7,0-1l4.1-4.1
		C480,139.2,480.4,139.2,480.7,139.5L480.7,139.5z"/>
	<path class="st4" d="M314.1,408.7c-11,0-20-8.9-20-20c0-11,8.9-20,20-20c11,0,20,8.9,20,20S325.1,408.7,314.1,408.7z"/>
	<path class="st5" d="M322,386.8h-5.9v-5.9c0-1.1-0.9-2-2-2c-1.1,0-2,0.9-2,2c0,0,0,0,0,0v5.9h-5.9c-1.1,0-2,0.9-2,2s0.9,2,2,2
		c0,0,0,0,0,0h5.9v5.9c0,1.1,0.9,2,2,2c1.1,0,2-0.9,2-2v-5.9h5.9c1.1,0,2-0.9,2-2C323.9,387.6,323.1,386.8,322,386.8
		C322,386.8,322,386.8,322,386.8L322,386.8z"/>
	<rect x="350.8" y="175.9" class="st6" width="60" height="40.8"/>
	<rect x="432.3" y="175.9" class="st6" width="60" height="40.8"/>
	<rect x="513.8" y="175.9" class="st6" width="60" height="40.8"/>
	<rect x="595.3" y="175.9" class="st6" width="60" height="40.8"/>
	<rect x="676.9" y="175.9" class="st6" width="60" height="40.8"/>
	<rect x="351" y="247.5" class="st6" width="60" height="40.8"/>
	<rect x="432.5" y="247.5" class="st6" width="60" height="40.8"/>
	<rect x="514" y="247.5" class="st6" width="60" height="40.8"/>
	<rect x="595.5" y="247.5" class="st6" width="60" height="40.8"/>
	<rect x="677.1" y="247.5" class="st6" width="60" height="40.8"/>
	<rect x="351.2" y="319.1" class="st6" width="60" height="40.8"/>
	<rect x="432.7" y="319.1" class="st6" width="60" height="40.8"/>
	<rect x="514.2" y="319.1" class="st6" width="60" height="40.8"/>
	<rect x="595.8" y="319.1" class="st6" width="60" height="40.8"/>
	<rect x="677.3" y="319.1" class="st6" width="60" height="40.8"/>
	<circle class="st4" cx="526.3" cy="188.7" r="7.6"/>
	<circle class="st4" cx="443.6" cy="260.3" r="7.6"/>
	<circle class="st4" cx="526.3" cy="331.9" r="7.6"/>
	<circle class="st3" cx="609.5" cy="260.3" r="7.6"/>
	<circle class="st3" cx="690.5" cy="260.3" r="7.6"/>
	<circle class="st3" cx="443.6" cy="331.9" r="7.6"/>
	<circle class="st7" cx="245.1" cy="390.2" r="14.1"/>
	<path class="st7" d="M240,473.4c-0.2,0-0.4,0-0.5,0c-3.5-0.3-6-3.3-5.8-6.8c0-0.2,0.1-0.5,0.1-0.7c0-0.2,0.1-0.4,0.2-0.6
		l-20.8-24.5c-1.4-1.7-1.5-4-0.3-5.8l0,0l18.7-18.4c2.1-2.1,5.5-2.1,7.6,0.1c2.1,2.1,2.1,5.5-0.1,7.6c0,0,0,0-0.1,0.1L225.6,437
		l14.8,23.8c0.3,0,0.6,0,0.8,0.1c3.4,0.7,5.6,4,4.9,7.4C245.6,471.2,243,473.4,240,473.4L240,473.4z"/>
	<polygon class="st7" points="268.2,585.9 275.3,585.9 278.6,558.8 268.2,558.8 	"/>
	<path class="st8" d="M266.5,583.6l13.8,0h0c4.9,0,8.8,3.9,8.8,8.8v0.3l-22.6,0L266.5,583.6z"/>
	<polygon class="st7" points="198.5,576.2 204.5,579.7 221.2,558.2 212.3,552.9 	"/>
	<path class="st8" d="M198.1,573.3l11.9,7.1l0,0c4.2,2.5,5.6,7.9,3.1,12.1l0,0l-0.1,0.2l-19.4-11.6L198.1,573.3z"/>
	<path class="st8" d="M276.9,576.3h-7.9c-1.3,0-2.4-1-2.6-2.3l-7.9-74.5c-0.1-0.5-0.5-0.8-0.9-0.8c-0.3,0-0.6,0.2-0.7,0.5
		l-14.3,31.6l-25.3,41.3c-0.7,1.1-2.1,1.5-3.2,1l-10.1-4.4c-1.3-0.6-1.9-2.1-1.3-3.4c0-0.1,0.1-0.2,0.1-0.3l23.3-39l7.1-32.8
		c-2.2-14.2,7.4-35.4,7.5-35.6l0-0.1l26.5-10.4l0.1,0.2c10.4,34.3,16.8,71.2,12.1,126.6C279.4,575.3,278.3,576.3,276.9,576.3z"/>
	<path class="st4" d="M239.7,461l-0.1-0.3c-0.1-0.1-6-12.6-10.5-25.8c-1.8-5.2-1.3-10.9,1.4-15.7c2.7-4.9,7.2-8.4,12.6-9.7l0,0
		c9.6-2.3,19.3,2.8,23,11.9c3.6,9,2.5,18.6,1.4,26.2l0,0.2l-0.1,0.1L239.7,461z"/>
	<path class="st8" d="M262.1,382.2h-22.3v-9.7c4.9-1.9,9.7-3.6,12.6,0C257.8,372.5,262.1,376.9,262.1,382.2L262.1,382.2z"/>
	<path class="st8" d="M238.6,370.8c-13.3,0-17.1,16.7-17.1,26.2c0,5.3,2.4,7.1,6.1,7.8l1.3-7l3.1,7.3c1.1,0,2.2,0,3.3,0l1-2.2
		l2.3,2.1c9.4,0,16.9,1.4,16.9-8C255.7,387.5,252.4,370.8,238.6,370.8z"/>
	<path class="st7" d="M297.9,389.5c0.1,0.2,0.2,0.3,0.2,0.5c1.4,3.2,0,6.9-3.2,8.3c-0.2,0.1-0.4,0.2-0.7,0.3
		c-0.2,0.1-0.4,0.1-0.6,0.2l-11.6,30c-0.8,2-2.8,3.3-5,3.1l-0.1,0l-25.1-7.6c-2.9-0.9-4.5-3.9-3.6-6.7c0.9-2.9,3.9-4.5,6.7-3.6l0,0
		c0,0,0.1,0,0.1,0l17.8,5.7l13.8-24.4c-0.1-0.3-0.2-0.5-0.3-0.8c-1-3.3,0.8-6.9,4.1-7.9C293.4,385.6,296.5,386.9,297.9,389.5
		L297.9,389.5z"/>
	<path class="st9" d="M300.8,593.3H184.3c-0.3,0-0.6-0.3-0.6-0.6c0-0.3,0.3-0.6,0.6-0.6h116.5c0.3,0,0.6,0.3,0.6,0.6
		C301.4,593.1,301.1,593.3,300.8,593.3z"/>
</g>
</svg>
