<?xml version="1.0" encoding="utf-8"?>
<!-- Generator: Adobe Illustrator 26.5.0, SVG Export Plug-In . SVG Version: 6.00 Build 0)  -->
<svg version="1.1" xmlns="http://www.w3.org/2000/svg" xmlns:xlink="http://www.w3.org/1999/xlink" x="0px" y="0px"
	 viewBox="0 0 815.8 574.5" style="enable-background:new 0 0 815.8 574.5;" xml:space="preserve">
<style type="text/css">
	.st0{clip-path:url(#SVGID_00000005249854361349594150000012496856393880885180_);}
	.st1{fill:#EF4444;}
	.st2{fill:#B91C1C;}
	.st3{fill:#3F3D56;}
	.st4{fill:#FFB6B6;}
	.st5{fill:#2F2E41;}
	.st6{fill:#F2F2F2;}
	.st7{fill:#FFFFFF;}
	.st8{fill:#E6E6E6;}
	.st9{fill:#CCCCCC;}
</style>
<g id="Calque_2">
	<g>
		<g>
			<defs>
				<path id="SVGID_1_" d="M753.5,338.3c-56.7,66.8-116.4,126.4-179.1,178.6s-125.8,52-189.1-0.8S249.5,424.7,168,400
					S42.3,320.3,35.7,234.8S71.4,97.9,162.8,80.6S325.8,47,377.9,31.8S491.2,14,561.8,23.7S696.1,71.6,753,138.2
					C810,204.8,810.1,271.5,753.5,338.3z"/>
			</defs>
			<clipPath id="SVGID_00000055677995329931011800000009878679379020544140_">
				<use xlink:href="#SVGID_1_"  style="overflow:visible;"/>
			</clipPath>
			<g style="clip-path:url(#SVGID_00000055677995329931011800000009878679379020544140_);">
				<path class="st1" d="M753.5,338.3c-56.7,66.8-116.4,126.4-179.1,178.6s-125.8,52-189.1-0.8S249.5,424.7,168,400
					S42.3,320.3,35.7,234.8S71.4,97.9,162.8,80.6S325.8,47,377.9,31.8S491.2,14,561.8,23.7S696.1,71.6,753,138.2
					C810,204.8,810.1,271.5,753.5,338.3z"/>
			</g>
		</g>
	</g>
</g>
<g id="Calque_1">
	<circle class="st2" cx="440.7" cy="247.3" r="17.1"/>
	<path class="st3" d="M254,113.1v162.7c0,8.2,6.7,14.9,14.9,14.9h425.5c8.2,0,14.9-6.7,14.9-14.9V113.1c0-8.2-6.7-14.9-14.9-14.9
		H269C260.7,98.2,254.1,104.9,254,113.1z M255.4,113.1c0-7.5,6.1-13.6,13.6-13.6l0,0h336.9c56.5,0,102.3,45.8,102.3,102.3v74
		c0,7.5-6.1,13.6-13.6,13.6l0,0H269c-7.5,0-13.6-6.1-13.6-13.6l0,0L255.4,113.1z"/>
	<polygon class="st4" points="259,455.9 268.5,455.9 273,419.1 259,419.1 	"/>
	<path class="st5" d="M258.6,465.8l29.3,0v-0.4c0-6.3-5.1-11.4-11.4-11.4h0l-5.4-4.1l-10,4.1l-2.6,0L258.6,465.8z"/>
	<polygon class="st4" points="217.4,455.9 226.9,455.9 231.4,419.1 217.4,419.1 	"/>
	<path class="st5" d="M217,465.8l29.3,0v-0.4c0-6.3-5.1-11.4-11.4-11.4h0l-5.4-4.1l-10,4.1l-2.6,0L217,465.8z"/>
	<path class="st5" d="M282.7,255.6c0,0,9.2,28.2,7.5,31.9s-4.6,0.8-1.7,3.7c2.9,2.9,5.4-0.2,2.7,4.7s-6.8,45.3-8.6,47.2
		s-4.3,2-2.1,3.9s5.1-2,2.2,1.9c-2.9,3.9-10.6,92.7-10.6,92.7h-15c0,0-3.7-4.3-1.6-7.1c2.1-2.8-0.2-3.9,0-5.7
		c0.2-1.9-0.5-5.9-0.6-7.7s-2.7-45.6,3.4-70.9L247.2,302l-13.4,58.2c0,0,6.2,48.8,0,64.5c0,0,5,4.1,2.8,6.5
		c-2.2,2.4-4.1,0.5-2.2,2.4c1.9,1.9-2.9,8.7-2.9,8.7l-16.4-1l-9.3-91.2c0,0-1.6-9.5,0-11.1c1.6-1.6,1.6,4.1,1.6-1.6v-7.7
		c0,0,0.9-47.4,1-50.2c0.1-2.8,11.7-23,11.7-23L282.7,255.6z"/>
	<path class="st2" d="M282.6,158.3v55.5c-1.8,5.4-2.7,11-2.7,16.7c0.1,9.4,2.1,20.3,2.1,25.1c0,0.6,0,1.3-0.2,1.9
		c-9.2,26.6-57.8,2.4-62.3,0.2c-0.2-0.1-0.3-0.2-0.3-0.2l1-29.8L220,219l-1.1-58.9l1-0.8l8.9-7.1l0.9-0.7l2.7,3.9l23.9-1.6l9.1-2.5
		l2.8,1.2l12.8,5.2L282.6,158.3z"/>
	<path class="st4" d="M365.8,201.9l-16.7-5.5l-4.5,9.1l17.9,5.2c1.7,2.8,5.4,3.6,8.1,1.8c2.8-1.7,3.6-5.4,1.8-8.1
		C371.1,202.2,368.4,201.2,365.8,201.9L365.8,201.9z"/>
	<path class="st2" d="M266.3,152.9l-0.1,0.3c-1.3,5.2-3,20.2,0.6,24.2c4.6,5.2,41.7,21,49.1,19.7c5.7-1,4.5-0.7,7.3,2.2
		c2.7,2.8-1.8,3.5,4.3,4c6.1,0.5,6.2-1.8,7.5,0.8s0.1,4.2,4.3,4s5.2,0.6,6.6,0.9c1.4,0.3,10.4,4.5,10.4,4.5s3.6-10.3,8.1-14.2
		c0,0-10.4-1.3-11.2-3.5c-0.8-2.2-0.1-4.2-2.9-3.8s-4.1,3.4-3.8-0.4c0.4-3.8-19.3-11.1-19.3-11.1
		C315.6,168.9,291.3,160.8,266.3,152.9z"/>
	<path class="st4" d="M213.2,268.9l-0.8-17.6l-10.1-1l1.5,18.6c-2,2.6-1.4,6.3,1.2,8.3c2.6,2,6.3,1.4,8.3-1.2
		C214.8,273.9,214.8,271,213.2,268.9z"/>
	<path class="st2" d="M223.8,158.4l-0.3,0c-5.4,0.6-10.1,3.9-12.6,8.6c-3.2,6.1-13.4,47.7-10.9,53.4c2.3,5.3,2.2,4,0.5,7.6
		c-1.7,3.6-3.9-0.4-2.2,5.4c1.7,5.9,3.9,5.2,2,7.3c-2,2.1-3.8,1.6-2.2,5.4c1.6,3.8,1.3,5.1,1.5,6.5s-0.5,11.3-0.5,11.3
		s10.9-0.3,16.1,2.6c0,0-2.5-10.2-0.7-11.7c1.8-1.5,3.8-1.6,2.5-4c-1.3-2.4-4.6-2.7-1-3.7c3.7-1,3.6-21.9,3.6-21.9L223.8,158.4z"/>
	<path class="st4" d="M249.9,136c-0.4,0.1-0.9,0.2-1.3,0.2c-1.3,0.2-2.6,0.3-3.9,0.2c-10.3-0.6-18.2-9.3-17.6-19.6
		c0.6-10.3,9.3-18.2,19.6-17.6c8.1,0.4,15,6.1,17,13.9c0,0.2,0.1,0.3,0.1,0.4C266.1,123.6,259.9,133.6,249.9,136z"/>
	<path class="st5" d="M232.7,133.8c-2.6-2-2.8-5.9-5.1-8.3c-3.7-4.1-5.4-8.5-3.5-13.3c1.7-4.3,1.3-9.5,5-12.3c-1.8-0.7-2.2-2-0.6-2
		c1.1,0,5.1,2,3.2-0.5c-1.9-2.6,1.7-1.6,1.5-2.6c-0.2-1.1-1.8-1.6-2.5-0.8c2.2-2.6,7-2,8.5,1c2.2-3.3,4.5-5.5,7.8-3.4
		c3.3,2,3.2,4.6,6.8,3.9c1.7-0.3,1.8,2.8,2.9,4.1c1.1,1.2,2.8,2.2,4.4,1.9c1.7-0.3,2.9-2.4,2-3.8l3.9,8.9l1.6-1.9
		c2.5,1.6,1.7,5.9-0.8,7.5s-7.3-2.1-8.7,0.5c-2.1,4.2-7.2,2.1-10.6-0.9c-4.2-3.6-9.3,7.3-7.2,12.4c-2.1-2.1-6-0.4-7.1,2.4
		c-1.1,2.7-0.3,5.8,0.5,8.6L232.7,133.8z"/>
	<path class="st6" d="M491.7,195.1h-19.7c-1.1,0-1.9-0.9-1.9-1.9v-19.5c0-1.1,0.9-1.9,1.9-1.9h19.7c1.1,0,1.9,0.9,1.9,1.9v19.5
		C493.6,194.3,492.7,195.1,491.7,195.1z"/>
	<path class="st6" d="M495,196.8h-19.7c-1.1,0-1.9-0.9-1.9-1.9v-19.5c0-1.1,0.9-1.9,1.9-1.9H495c1.1,0,1.9,0.9,1.9,1.9v19.5
		C496.9,195.9,496,196.8,495,196.8z"/>
	<path class="st7" d="M472.4,172.4c-1,0-1.8,0.8-1.8,1.8v18.7c0,1,0.8,1.8,1.8,1.8h12.1c4.8,0,8.6-3.9,8.6-8.6c0,0,0,0,0,0v-11.8
		c0-1-0.8-1.8-1.8-1.8H472.4z"/>
	<path class="st6" d="M487.1,178h-10.6c-0.2,0-0.4-0.2-0.4-0.4c0-0.2,0.2-0.4,0.4-0.4l0,0h10.6c0.2,0,0.4,0.2,0.4,0.4
		C487.5,177.8,487.3,178,487.1,178z"/>
	<path class="st6" d="M487.1,185.8h-10.6c-0.2,0-0.4-0.2-0.4-0.4c0-0.2,0.2-0.4,0.4-0.4l0,0h10.6c0.2,0,0.4,0.2,0.4,0.4
		C487.5,185.7,487.3,185.8,487.1,185.8z"/>
	<path class="st6" d="M491.4,181.9h-19.2c-0.2,0-0.4-0.2-0.4-0.4c0-0.2,0.2-0.4,0.4-0.4h19.2c0.2,0,0.4,0.2,0.4,0.4
		C491.8,181.8,491.6,181.9,491.4,181.9z"/>
	<path class="st6" d="M491.6,189h-6.9c-0.2,0-0.4-0.2-0.4-0.4s0.2-0.4,0.4-0.4h6.9c0.2,0,0.4,0.2,0.4,0.4S491.8,189,491.6,189
		L491.6,189z"/>
	<path class="st6" d="M432.2,207.3l-0.3-0.1c-15-7.4-31.2-7.4-49.5,0l-0.5-1.2c18.6-7.5,35.1-7.6,50.3-0.1c21.5-8.2,35.3-22,41-41.2
		l1.3,0.4c-5.9,19.6-20.1,33.8-42.1,42.1L432.2,207.3z"/>
	<path class="st6" d="M494.6,207.3l-0.3-0.1c-14.7-6.9-30.9-6.9-49.5,0l-0.5-1.2c18.9-7,35.3-7,50.3-0.1c24-9.6,37.8-23.4,41-41.1
		l1.3,0.2c-3.3,18.2-17.4,32.4-42.1,42.2L494.6,207.3z"/>
	<path class="st6" d="M543.8,206.6l-0.2-0.1c-12.1-5.2-27.9-5.2-49.6,0l-0.3-1.3c21.9-5.3,37.9-5.3,50.3,0c24.6-3,38-16.4,40.9-41.1
		l1.3,0.2c-3.1,25.4-16.9,39.2-42.3,42.2L543.8,206.6z"/>
	<circle class="st2" cx="479.4" cy="162.6" r="5.3"/>
	<circle class="st2" cx="538.6" cy="162.6" r="5.3"/>
	<circle class="st2" cx="585.9" cy="161.9" r="5.3"/>
	<path class="st8" d="M439.3,247.4h-55.3c-3,0-5.4-2.4-5.4-5.4v-54.6c0-3,2.4-5.4,5.4-5.4h55.3c3,0,5.4,2.4,5.4,5.4V242
		C444.7,244.9,442.3,247.4,439.3,247.4z"/>
	<path class="st8" d="M430.1,242.8h-55.3c-3,0-5.4-2.4-5.4-5.4v-54.6c0-3,2.4-5.4,5.4-5.4h55.3c3,0,5.4,2.4,5.4,5.4v54.6
		C435.5,240.3,433.1,242.8,430.1,242.8z"/>
	<path class="st7" d="M385.2,179c-7.8,0-14.1,6.3-14.1,14.1l0,0v43.1c0,2.7,2.2,5,5,5l0,0h33.8c13.3,0,24.1-10.8,24.1-24.1v-33.1
		c0-2.7-2.2-5-5-5H385.2z"/>
	<path class="st8" d="M417.3,194.8h-29.7c-0.6,0-1-0.5-1-1s0.5-1,1-1c0,0,0,0,0,0h29.7c0.6,0,1,0.5,1,1
		C418.3,194.4,417.9,194.8,417.3,194.8z"/>
	<path class="st8" d="M417.3,216.8h-29.7c-0.6,0-1-0.5-1-1c0-0.6,0.5-1,1-1c0,0,0,0,0,0h29.7c0.6,0,1,0.5,1,1
		C418.3,216.3,417.9,216.8,417.3,216.8z"/>
	<path class="st8" d="M429.4,205.8h-53.8c-0.6,0-1-0.5-1-1c0-0.6,0.5-1,1-1c0,0,0,0,0,0h53.8c0.6,0,1,0.5,1,1
		C430.4,205.3,429.9,205.8,429.4,205.8z"/>
	<path class="st8" d="M429.9,225.7h-19.5c-0.6,0-1-0.5-1-1c0-0.6,0.5-1,1-1c0,0,0,0,0,0h19.5c0.6,0,1,0.5,1,1
		C431,225.2,430.5,225.7,429.9,225.7z"/>
	<path class="st6" d="M561.3,192.5h-19.7c-1.1,0-1.9-0.9-1.9-1.9v-19.5c0-1.1,0.9-1.9,1.9-1.9h19.7c1.1,0,1.9,0.9,1.9,1.9v19.5
		C563.3,191.6,562.4,192.5,561.3,192.5z"/>
	<path class="st6" d="M564.6,194.1h-19.7c-1.1,0-1.9-0.9-1.9-1.9v-19.5c0-1.1,0.9-1.9,1.9-1.9h19.7c1.1,0,1.9,0.9,1.9,1.9v19.5
		C566.5,193.3,565.7,194.1,564.6,194.1z"/>
	<path class="st7" d="M542,169.7c-1,0-1.8,0.8-1.8,1.8v18.7c0,1,0.8,1.8,1.8,1.8h12.1c4.8,0,8.6-3.9,8.6-8.6c0,0,0,0,0,0v-11.8
		c0-1-0.8-1.8-1.8-1.8H542z"/>
	<path class="st6" d="M556.7,175.4h-10.6c-0.2,0-0.4-0.2-0.4-0.4c0-0.2,0.2-0.4,0.4-0.4h10.6c0.2,0,0.4,0.2,0.4,0.4
		C557.1,175.2,556.9,175.4,556.7,175.4z"/>
	<path class="st6" d="M556.7,183.2h-10.6c-0.2,0-0.4-0.2-0.4-0.4c0-0.2,0.2-0.4,0.4-0.4h10.6c0.2,0,0.4,0.2,0.4,0.4
		C557.1,183,556.9,183.2,556.7,183.2z"/>
	<path class="st6" d="M561.1,179.3h-19.2c-0.2,0-0.4-0.2-0.4-0.4c0-0.2,0.2-0.4,0.4-0.4h19.2c0.2,0,0.4,0.2,0.4,0.4
		C561.4,179.1,561.3,179.3,561.1,179.3z"/>
	<path class="st6" d="M561.2,186.4h-6.9c-0.2,0-0.4-0.2-0.4-0.4c0-0.2,0.2-0.4,0.4-0.4h6.9c0.2,0,0.4,0.2,0.4,0.4
		C561.6,186.2,561.5,186.4,561.2,186.4L561.2,186.4z"/>
	<path class="st6" d="M335.2,456.7c-0.8,0-1.5-0.6-1.6-1.4c0-0.4,0.2-0.9,0.5-1.2l0.1-0.4c0,0,0-0.1,0-0.1c-0.9-2-3.2-3-5.2-2.1
		c-1,0.4-1.7,1.2-2.1,2.2c-1.2,2.9-2.7,5.8-3.1,8.9c-0.2,1.4-0.1,2.7,0.2,4.1c-2.8-6.2-4.3-12.9-4.3-19.7c0-1.7,0.1-3.4,0.3-5.1
		c0.2-1.4,0.4-2.8,0.7-4.1c1.5-7.4,4.8-14.4,9.5-20.4c2.3-1.3,4.2-3.2,5.3-5.5c0.4-0.8,0.7-1.7,0.9-2.7c-0.3,0-1-3.9-0.8-4.2
		c-0.4-0.5-1-0.8-1.4-1.4c-2-2.7-4.7-2.2-6.1,1.4c-3,1.5-3,4-1.2,6.5c1.2,1.5,1.3,3.6,2.4,5.3c-0.1,0.1-0.2,0.3-0.3,0.4
		c-1.9,2.5-3.6,5.2-5,8c0.3-3.2-0.1-6.4-1.2-9.3c-1.1-2.8-3.3-5.1-5.2-7.5c-1.4-1.8-4-2.1-5.8-0.7c-0.9,0.7-1.4,1.7-1.6,2.7
		c0,0,0,0.1,0,0.1c0.3,0.2,0.6,0.3,0.8,0.5c0.9,0.6,1.2,1.9,0.6,2.8c-0.3,0.5-0.8,0.8-1.4,0.9l0,0c0.1,1,0.3,2,0.5,3
		c-2.4,9.4,2.8,12.8,10.3,13c0.2,0.1,0.3,0.2,0.5,0.3c-1.4,4-2.3,8.2-2.7,12.5c-0.2,2.5-0.2,5,0,7.6l0-0.1c-0.5-2.8-2-5.3-4.2-7.1
		c-3.2-2.7-7.8-3.7-11.3-5.8c-1.1-0.7-2.5-0.4-3.2,0.7c-0.3,0.5-0.4,1-0.3,1.6l0,0.1c0.5,0.2,1,0.5,1.5,0.7c0.3,0.2,0.6,0.3,0.8,0.5
		c0.9,0.6,1.2,1.9,0.6,2.8c-0.3,0.5-0.8,0.8-1.4,0.9l0,0c0,0-0.1,0-0.1,0c0.9,2.1,2.1,4.1,3.7,5.8c1.5,8.2,8.1,9,15,6.6h0
		c0.8,3.3,1.9,6.6,3.3,9.7h11.8c0-0.1,0.1-0.3,0.1-0.4c-1.1,0.1-2.2,0-3.3-0.2c0.9-1.1,1.8-2.2,2.6-3.2c0,0,0,0,0.1-0.1
		c0.4-0.6,0.9-1.1,1.3-1.7l0,0C335.8,460.1,335.6,458.4,335.2,456.7L335.2,456.7z"/>
	<path class="st9" d="M173.4,467.3c0,0.4,0.3,0.8,0.8,0.8c0,0,0,0,0,0h166.4c0.4,0,0.8-0.4,0.8-0.8s-0.4-0.8-0.8-0.8H174.1
		C173.7,466.6,173.4,466.9,173.4,467.3C173.4,467.3,173.4,467.3,173.4,467.3z"/>
	<path class="st6" d="M244.6,136.4l3.9-0.2C247.3,136.4,246,136.5,244.6,136.4z"/>
	<polygon class="st3" points="268.2,152.4 267.5,153.2 265.8,155.5 250.7,174.7 228.8,152.2 229.6,151.5 234.3,141.6 258.2,140 
		265.3,151.3 	"/>
</g>
</svg>
