<?xml version="1.0" encoding="UTF-8"?>
<svg id="Calque_1" data-name="Calque 1" xmlns="http://www.w3.org/2000/svg" viewBox="0 0 512 512">
  <defs>
    <style>
      .cls-1 {
        fill: #ef4444;
      }

      .cls-2 {
        fill: rgba(96, 96, 96, .05);
      }
    </style>
  </defs>
  <path class="cls-2" d="M0,0H512V512H0V0Z"/>
  <path class="cls-1" d="M289.19,22.72c-6.5,.16-12.79,2.26-17.59,7.12-.48,.49-.92,.98-1.34,1.5l-.19-.19c-17.85,22.67-35.71,51.21-45.72,83.09-11.2,35.67-12.8,74.75,5.69,114.78l-16.97,7.85c-14.31-30.97-17.81-61.92-14.53-90.97-8.48,4.99-16.41,11.18-23.69,18.31-22.37-29.2-49.98-56.59-76.5-76-1.4-1.4-3-2.65-4.81-3.69-3.38-1.92-6.98-2.86-10.62-3.03-.38-.02-.75-.03-1.12-.03-.38,0-.77,.02-1.15,.03-5.33,.2-10.67,1.93-15.44,4.56-8.72,4.82-16.54,12.77-22.5,22.94-5.95,10.17-9.04,20.86-8.91,30.78,.13,9.92,3.9,20.06,12.91,25.19,.37,.21,.75,.38,1.13,.56l-.13,.25c27.3,16.83,63.36,39.38,86.63,67.63-6.58,22.99-7.84,46.74-2.62,67.41,15.3,60.71,62.43,115.8,113.03,150.66,25.3,17.43,51.4,29.79,74.22,35.5,22.82,5.71,41.87,4.55,53.91-2.66,27.15-16.25,45.33-45.64,56.31-80.53-6.82,4.01-14.07,7.32-21.62,9.87-35.78,12.1-78.11,8.73-113.62-10.06-35.52-18.79-64.11-53.72-70.53-103.22l18.53-2.4c5.67,43.69,29.91,72.77,60.75,89.09,30.84,16.32,68.41,19.18,98.88,8.88,30.46-10.3,53.67-32.64,59.03-68.91,4.43-29.98-3.86-70.53-33.84-121.37-19.14,2.18-38.67,6.37-56.63,11.56l-5.19-17.94c12.73-3.68,26.19-6.87,39.88-9.28,2.63,.22,5.33,.02,8.03-.72,1.02-.28,2-.63,2.94-1.03,.03,0,.06-.03,.09-.03,0,0,0-.02,0-.03,8.22-3.55,13.44-11.47,15.91-20.03,2.76-9.57,2.7-20.72-.28-32.12-2.98-11.4-8.36-21.14-15.47-28.06-5.33-5.19-12.21-9-19.53-9.44-2.24-.13-4.5,.07-6.78,.63l-.09-.41c-16.04,5.84-33.73,13.76-51,24.12-8.95,11.38-15.96,22.48-20.5,33.38-7.05,16.92-8.51,33.12-2.44,51.44l-17.72,5.91c-7.46-22.5-5.51-44.33,2.91-64.53,7.42-17.83,19.73-34.59,34.66-51.38l-.16-.16c.62-.51,1.23-1.04,1.81-1.62,7.29-7.38,8.24-18.11,5.84-27.78-2.39-9.67-8.03-19.27-16.31-27.66l-.06-.03c-8.27-8.36-17.78-14.1-27.38-16.53-2.4-.61-4.87-.99-7.34-1.12-.46-.02-.94-.06-1.41-.06-.43,0-.88-.01-1.31,0h0Zm.66,18.62c.36,0,.76,0,1.16,.03,1.07,.08,2.28,.31,3.66,.66,5.51,1.4,12.56,5.33,18.72,11.56,6.15,6.23,10.07,13.39,11.47,19.03,1.4,5.65,.36,8.78-1,10.16-1.36,1.38-4.27,2.37-9.78,.97-5.51-1.4-12.57-5.36-18.72-11.59-6.15-6.23-10.07-13.39-11.47-19.03-1.4-5.65-.36-8.75,1-10.13,.89-.9,2.45-1.65,4.97-1.66h0ZM81.69,100.12c1.09,.03,1.96,.3,2.59,.66,1.68,.96,3.39,3.5,3.47,9.19,.07,5.68-1.92,13.5-6.34,21.06-4.43,7.56-10.31,13.22-15.41,16.03-5.09,2.81-8.38,2.62-10.06,1.66-1.68-.96-3.39-3.5-3.47-9.19-.08-5.68,1.92-13.54,6.34-21.09,4.43-7.56,10.31-13.19,15.41-16,2.54-1.41,4.64-2.06,6.31-2.25,.42-.05,.79-.07,1.16-.06h0Zm109.94,1.28c-13,.07-26.44,5.49-34,14.12,6.85,7.14,13.47,14.44,19.78,21.88,7.85-5.78,16.26-10.73,25.19-14.59,1.14-4.79,2.45-9.51,3.9-14.16,.43-1.38,.89-2.73,1.34-4.09-4.97-2.18-10.55-3.19-16.22-3.16h0Zm203.13,15.78c.27-.02,.57-.02,.88,0,1.83,.14,4.26,1.21,7.31,4.19,4.07,3.97,8.22,10.9,10.44,19.37,2.21,8.47,2.02,16.63,.41,22.22-1.61,5.59-4.07,7.8-5.94,8.31-1.87,.51-4.86-.1-8.94-4.06-4.07-3.97-8.22-10.9-10.44-19.38-2.22-8.47-2.02-16.63-.41-22.22,1.61-5.59,4.07-7.8,5.94-8.31,.23-.07,.48-.11,.75-.13h0Z"/>
</svg>